<svg width="970" height="586" viewBox="0 0 970 586" fill="none" xmlns="http://www.w3.org/2000/svg">
<rect width="970" height="586" fill="#14182C"/>
<rect x="329" y="190" width="286" height="39" rx="19.5" fill="#989595"/>
<rect x="252" y="269" width="440" height="10" rx="5" fill="#989595"/>
<rect x="197" y="300" width="550" height="10" rx="5" fill="#989595"/>
<rect x="323" y="331" width="298" height="10" rx="5" fill="#989595"/>
<rect x="807" y="41" width="123" height="37" rx="12" fill="#386DF8"/>
<rect x="480" y="381" width="123" height="37" rx="18.5" fill="#386DF8"/>
<rect x="341" y="381" width="123" height="37" rx="18.5" fill="#74D7ED"/>
<rect x="334" y="56" width="63" height="8" rx="4" fill="#989595"/>
<rect x="426" y="56" width="46" height="8" rx="4" fill="#989595"/>
<rect x="501" y="56" width="73" height="8" rx="4" fill="#989595"/>
<rect x="603" y="56" width="63" height="8" rx="4" fill="#989595"/>
<path d="M63.1526 66.6945H71.1477L51.3422 46.8889H43.347L63.1526 66.6945Z" fill="#386DF8"/>
<path d="M55.4497 46.8889L74.5419 65.9811V46.8889H69.3752V52.9167L63.3474 46.8889L55.4497 46.8889Z" fill="#386DF8"/>
<path d="M40 47.5519V66.6944H45.1667V60.6666L51.1944 66.6944H59.1425L40 47.5519Z" fill="#386DF8"/>
<path d="M87.0098 63.7164H91.6391V66.4444H83.4758V51.9364H87.0098V63.7164Z" fill="white"/>
<path d="M97.9541 66.6098C96.8243 66.6098 95.8047 66.3687 94.8954 65.8864C93.9998 65.4042 93.2903 64.7153 92.7667 63.8198C92.257 62.9242 92.0021 61.8771 92.0021 60.6784C92.0021 59.4936 92.2638 58.4533 92.7874 57.5578C93.311 56.6484 94.0274 55.9527 94.9367 55.4704C95.8461 54.9882 96.8656 54.7471 97.9954 54.7471C99.1252 54.7471 100.145 54.9882 101.054 55.4704C101.963 55.9527 102.68 56.6484 103.203 57.5578C103.727 58.4533 103.989 59.4936 103.989 60.6784C103.989 61.8633 103.72 62.9104 103.183 63.8198C102.659 64.7153 101.936 65.4042 101.013 65.8864C100.103 66.3687 99.0838 66.6098 97.9541 66.6098ZM97.9541 63.5511C98.6292 63.5511 99.201 63.3031 99.6694 62.8071C100.152 62.3111 100.393 61.6016 100.393 60.6784C100.393 59.7553 100.159 59.0458 99.6901 58.5498C99.2354 58.0538 98.6705 57.8058 97.9954 57.8058C97.3065 57.8058 96.7347 58.0538 96.2801 58.5498C95.8254 59.032 95.5981 59.7416 95.5981 60.6784C95.5981 61.6016 95.8185 62.3111 96.2594 62.8071C96.7141 63.3031 97.279 63.5511 97.9541 63.5511Z" fill="white"/>
<path d="M109.625 54.7471C110.438 54.7471 111.147 54.9124 111.754 55.2431C112.374 55.5738 112.849 56.0078 113.18 56.5451V54.9124H116.714V66.4238C116.714 67.4847 116.5 68.4422 116.073 69.2964C115.66 70.1644 115.019 70.8533 114.151 71.3631C113.297 71.8729 112.229 72.1278 110.948 72.1278C109.239 72.1278 107.854 71.7213 106.794 70.9084C105.733 70.1093 105.126 69.0209 104.975 67.6431H108.468C108.578 68.084 108.84 68.4284 109.253 68.6764C109.666 68.9382 110.176 69.0691 110.782 69.0691C111.512 69.0691 112.091 68.8556 112.518 68.4284C112.959 68.0151 113.18 67.3469 113.18 66.4238V64.7911C112.835 65.3284 112.36 65.7693 111.754 66.1138C111.147 66.4444 110.438 66.6098 109.625 66.6098C108.674 66.6098 107.813 66.3687 107.042 65.8864C106.27 65.3904 105.657 64.6947 105.202 63.7991C104.761 62.8898 104.541 61.8427 104.541 60.6578C104.541 59.4729 104.761 58.4327 105.202 57.5371C105.657 56.6416 106.27 55.9527 107.042 55.4704C107.813 54.9882 108.674 54.7471 109.625 54.7471ZM113.18 60.6784C113.18 59.7967 112.932 59.1009 112.436 58.5911C111.953 58.0813 111.361 57.8264 110.658 57.8264C109.956 57.8264 109.356 58.0813 108.86 58.5911C108.378 59.0871 108.137 59.776 108.137 60.6578C108.137 61.5396 108.378 62.2422 108.86 62.7658C109.356 63.2756 109.956 63.5304 110.658 63.5304C111.361 63.5304 111.953 63.2756 112.436 62.7658C112.932 62.256 113.18 61.5602 113.18 60.6784Z" fill="white"/>
<path d="M123.9 66.6098C122.77 66.6098 121.75 66.3687 120.841 65.8864C119.945 65.4042 119.236 64.7153 118.712 63.8198C118.203 62.9242 117.948 61.8771 117.948 60.6784C117.948 59.4936 118.209 58.4533 118.733 57.5578C119.257 56.6484 119.973 55.9527 120.882 55.4704C121.792 54.9882 122.811 54.7471 123.941 54.7471C125.071 54.7471 126.09 54.9882 127 55.4704C127.909 55.9527 128.625 56.6484 129.149 57.5578C129.673 58.4533 129.934 59.4936 129.934 60.6784C129.934 61.8633 129.666 62.9104 129.128 63.8198C128.605 64.7153 127.881 65.4042 126.958 65.8864C126.049 66.3687 125.029 66.6098 123.9 66.6098ZM123.9 63.5511C124.575 63.5511 125.146 63.3031 125.615 62.8071C126.097 62.3111 126.338 61.6016 126.338 60.6784C126.338 59.7553 126.104 59.0458 125.636 58.5498C125.181 58.0538 124.616 57.8058 123.941 57.8058C123.252 57.8058 122.68 58.0538 122.226 58.5498C121.771 59.032 121.544 59.7416 121.544 60.6784C121.544 61.6016 121.764 62.3111 122.205 62.8071C122.66 63.3031 123.224 63.5511 123.9 63.5511Z" fill="white"/>
<path d="M132.966 53.7138C132.346 53.7138 131.837 53.5347 131.437 53.1764C131.051 52.8044 130.858 52.3498 130.858 51.8124C130.858 51.2613 131.051 50.8067 131.437 50.4484C131.837 50.0764 132.346 49.8904 132.966 49.8904C133.573 49.8904 134.069 50.0764 134.454 50.4484C134.854 50.8067 135.054 51.2613 135.054 51.8124C135.054 52.3498 134.854 52.8044 134.454 53.1764C134.069 53.5347 133.573 53.7138 132.966 53.7138ZM134.723 54.9124V66.4444H131.189V54.9124H134.723Z" fill="white"/>
<path d="M140.198 56.5451C140.543 56.0078 141.018 55.5738 141.624 55.2431C142.23 54.9124 142.94 54.7471 143.753 54.7471C144.704 54.7471 145.565 54.9882 146.336 55.4704C147.108 55.9527 147.714 56.6416 148.155 57.5371C148.61 58.4327 148.837 59.4729 148.837 60.6578C148.837 61.8427 148.61 62.8898 148.155 63.7991C147.714 64.6947 147.108 65.3904 146.336 65.8864C145.565 66.3687 144.704 66.6098 143.753 66.6098C142.954 66.6098 142.244 66.4444 141.624 66.1138C141.018 65.7831 140.543 65.356 140.198 64.8324V71.9418H136.664V54.9124H140.198V56.5451ZM145.241 60.6578C145.241 59.776 144.993 59.0871 144.497 58.5911C144.015 58.0813 143.415 57.8264 142.699 57.8264C141.996 57.8264 141.397 58.0813 140.901 58.5911C140.419 59.1009 140.178 59.7967 140.178 60.6784C140.178 61.5602 140.419 62.256 140.901 62.7658C141.397 63.2756 141.996 63.5304 142.699 63.5304C143.402 63.5304 144.001 63.2756 144.497 62.7658C144.993 62.2422 145.241 61.5396 145.241 60.6578Z" fill="white"/>
<path d="M154.762 66.6098C153.756 66.6098 152.861 66.4376 152.076 66.0931C151.29 65.7487 150.67 65.2802 150.216 64.6878C149.761 64.0816 149.506 63.4064 149.451 62.6624H152.944C152.985 63.062 153.171 63.3858 153.502 63.6338C153.832 63.8818 154.239 64.0058 154.721 64.0058C155.162 64.0058 155.499 63.9231 155.734 63.7578C155.982 63.5787 156.106 63.3513 156.106 63.0758C156.106 62.7451 155.933 62.504 155.589 62.3524C155.244 62.1871 154.686 62.008 153.915 61.8151C153.088 61.6222 152.399 61.4224 151.848 61.2158C151.297 60.9953 150.822 60.6578 150.422 60.2031C150.023 59.7347 149.823 59.1078 149.823 58.3224C149.823 57.6611 150.002 57.0618 150.36 56.5244C150.732 55.9733 151.27 55.5393 151.972 55.2224C152.689 54.9055 153.536 54.7471 154.514 54.7471C155.961 54.7471 157.098 55.1053 157.924 55.8218C158.765 56.5382 159.247 57.4889 159.371 58.6738H156.106C156.05 58.2742 155.871 57.9573 155.568 57.7231C155.279 57.4889 154.893 57.3718 154.411 57.3718C153.998 57.3718 153.681 57.4544 153.46 57.6198C153.24 57.7713 153.13 57.9849 153.13 58.2604C153.13 58.5911 153.302 58.8391 153.646 59.0044C154.004 59.1698 154.556 59.3351 155.3 59.5004C156.154 59.7209 156.85 59.9413 157.387 60.1618C157.924 60.3684 158.393 60.7129 158.792 61.1951C159.206 61.6636 159.419 62.2973 159.433 63.0964C159.433 63.7716 159.24 64.3778 158.854 64.9151C158.482 65.4387 157.938 65.852 157.222 66.1551C156.519 66.4582 155.699 66.6098 154.762 66.6098Z" fill="white"/>
<path d="M172.362 54.9124V66.4444H168.828V64.8738C168.47 65.3836 167.981 65.7969 167.361 66.1138C166.755 66.4169 166.08 66.5684 165.336 66.5684C164.454 66.5684 163.675 66.3756 163 65.9898C162.325 65.5902 161.802 65.0184 161.43 64.2744C161.058 63.5304 160.872 62.6556 160.872 61.6498V54.9124H164.385V61.1744C164.385 61.946 164.585 62.5453 164.984 62.9724C165.384 63.3996 165.921 63.6131 166.596 63.6131C167.285 63.6131 167.829 63.3996 168.229 62.9724C168.629 62.5453 168.828 61.946 168.828 61.1744V54.9124H172.362Z" fill="white"/>
<path d="M188.995 54.7885C190.428 54.7885 191.565 55.2225 192.405 56.0904C193.26 56.9584 193.687 58.164 193.687 59.7071V66.4444H190.173V60.1824C190.173 59.4384 189.974 58.8667 189.574 58.4671C189.188 58.0538 188.651 57.8471 187.962 57.8471C187.273 57.8471 186.729 58.0538 186.329 58.4671C185.944 58.8667 185.751 59.4384 185.751 60.1824V66.4444H182.237V60.1824C182.237 59.4384 182.038 58.8667 181.638 58.4671C181.252 58.0538 180.715 57.8471 180.026 57.8471C179.337 57.8471 178.793 58.0538 178.393 58.4671C178.008 58.8667 177.815 59.4384 177.815 60.1824V66.4444H174.281V54.9125H177.815V56.3591C178.173 55.8769 178.641 55.498 179.22 55.2225C179.799 54.9331 180.453 54.7885 181.183 54.7885C182.051 54.7885 182.823 54.9745 183.498 55.3465C184.187 55.7185 184.724 56.2489 185.11 56.9378C185.51 56.304 186.054 55.7873 186.743 55.3878C187.432 54.9882 188.183 54.7885 188.995 54.7885Z" fill="white"/>
</svg>
