<svg width="32" height="32" viewBox="0 0 32 32" fill="none" xmlns="http://www.w3.org/2000/svg">
<path fill-rule="evenodd" clip-rule="evenodd" d="M11.22 0C7.95734 0 5.33334 2.73733 5.33334 6.09067C5.33334 8.12933 6.304 9.94 7.796 11.0453C7.02704 11.6214 6.40375 12.3697 5.97609 13.2301C5.54843 14.0905 5.3283 15.0392 5.33334 16C5.33334 18.04 6.304 19.8493 7.796 20.9547C7.02704 21.5308 6.40375 22.279 5.97609 23.1395C5.54843 23.9999 5.3283 24.9485 5.33334 25.9093C5.33334 29.2627 7.95734 32 11.22 32C14.4813 32 17.1067 29.2627 17.1067 25.9093V20.76C18.1378 21.6197 19.4375 22.091 20.78 22.092C24.0427 22.0907 26.6667 19.3533 26.6667 16C26.672 15.0391 26.452 14.0904 26.0243 13.2299C25.5967 12.3694 24.9732 11.6212 24.204 11.0453C24.973 10.4692 25.5963 9.72096 26.0239 8.86055C26.4516 8.00013 26.6717 7.05149 26.6667 6.09067C26.6667 2.73733 24.0427 0 20.78 0H11.22ZM7.54534 6.09067C7.54534 3.96933 9.20134 2.27067 11.22 2.27067H14.8933V9.91067H11.22C9.20134 9.91067 7.54534 8.21067 7.54534 6.09067ZM20.78 9.90933H17.1067V2.26933H20.78C22.8 2.26933 24.4547 3.96933 24.4547 6.09067C24.4547 8.21067 22.8 9.90933 20.78 9.90933ZM7.54667 16C7.54667 13.88 9.20267 12.18 11.2213 12.18H14.8947V19.82H11.22C9.2 19.82 7.54534 18.12 7.54534 16H7.54667ZM17.1067 16C17.1067 13.88 18.7627 12.18 20.7813 12.18C22.8013 12.18 24.456 13.8787 24.456 16C24.456 18.12 22.8013 19.82 20.7813 19.82C18.7627 19.82 17.108 18.1213 17.108 16H17.1067ZM7.54667 25.9093C7.54667 23.7893 9.20267 22.0907 11.2213 22.0907H14.8947V25.9093C14.8947 28.0307 13.2413 29.7293 11.2213 29.7293C9.20267 29.7293 7.54667 28.0307 7.54667 25.9093Z" fill="#DADADA"/>
</svg>
