<svg width="32" height="32" viewBox="0 0 32 32" fill="none" xmlns="http://www.w3.org/2000/svg">
<path d="M4.53125 3L6.59375 26.3312L15.9937 29L25.3563 26.3312L27.4594 3H4.53125ZM23.6219 24.8937L15.9937 27.0688L8.33125 24.8937L6.55937 4.85625H25.4281L23.6219 24.8937ZM8.78125 7.78125L8.83438 8.54062L9.54375 16.4625H15.9969V16.4594H19.525L19.1688 20.1625L15.9688 21.0281V21.0344H15.9438L12.7437 20.1688L12.5406 17.8813H9.69687L10.05 22.4031L15.9438 24.0281H15.9969V24.0156L21.8625 22.4L21.9156 21.8906L22.5781 14.3219L22.6781 13.5625H15.9688V13.5688H12.1844L11.9281 10.625H22.9312L22.9844 10.0156L23.1344 8.54062L23.1875 7.78125H15.9688H8.78125Z" fill="#DADADA"/>
</svg>
