<svg width="32" height="29" viewBox="0 0 32 29" fill="none" xmlns="http://www.w3.org/2000/svg">
<path d="M32 14.252C32 12.132 29.3453 10.1227 25.2747 8.87733C26.2147 4.72933 25.7973 1.428 23.9573 0.370667C23.5115 0.120961 23.0069 -0.00473052 22.496 0.00666666V1.46C22.796 1.46 23.0373 1.52 23.24 1.63067C24.1267 2.14 24.512 4.076 24.212 6.568C24.14 7.18133 24.0227 7.82667 23.8787 8.48533C22.5155 8.15685 21.132 7.91944 19.7373 7.77467C18.9065 6.62839 18 5.53885 17.024 4.51333C19.1507 2.53733 21.1467 1.45467 22.504 1.45467V0C20.7093 0 18.3613 1.27867 15.9867 3.496C13.6133 1.29333 11.264 0.0266666 9.47067 0.0266666V1.48C10.8213 1.48 12.824 2.55733 14.9507 4.52C14.0373 5.48 13.124 6.568 12.256 7.77467C10.8584 7.91783 9.47247 8.15751 8.108 8.492C7.9638 7.86772 7.85033 7.23674 7.768 6.60133C7.46133 4.108 7.84 2.172 8.72133 1.65733C8.916 1.54 9.17067 1.48667 9.47067 1.48667V0.0333333C8.924 0.0333333 8.42667 0.150667 7.99733 0.397333C6.164 1.45467 5.75333 4.748 6.69867 8.884C2.64133 10.1373 0 12.1387 0 14.252C0 16.372 2.65467 18.3813 6.72533 19.6253C5.78533 23.7747 6.20267 27.076 8.04267 28.132C8.46667 28.38 8.96267 28.4973 9.50933 28.4973C11.304 28.4973 13.652 27.2187 16.0267 25.0013C18.4 27.2053 20.748 28.4707 22.5427 28.4707C23.0575 28.4815 23.5659 28.3555 24.016 28.1053C25.8493 27.0493 26.26 23.756 25.3147 19.62C29.3587 18.3747 32 16.3653 32 14.252ZM23.5067 9.90133C23.2533 10.7731 22.9597 11.6327 22.6267 12.4773C22.0816 11.417 21.483 10.385 20.8333 9.38533C21.76 9.52267 22.6533 9.692 23.508 9.90133H23.5067ZM20.52 16.848C20.0316 17.7006 19.5072 18.532 18.948 19.34C16.991 19.5125 15.0227 19.5147 13.0653 19.3467C11.9426 17.7429 10.9607 16.045 10.1307 14.272C10.9594 12.4948 11.9372 10.7909 13.0533 9.17867C15.0099 9.00583 16.9777 9.00315 18.9347 9.17067C19.476 9.94667 20.0053 10.776 20.5133 11.6507C21.0093 12.504 21.46 13.3707 21.8707 14.2453C21.4554 15.1306 21.0049 15.9989 20.52 16.848ZM22.6267 16C22.9787 16.8733 23.28 17.748 23.5267 18.596C22.6733 18.8053 21.772 18.9813 20.84 19.1173C21.487 18.1086 22.0833 17.0682 22.6267 16ZM16.0133 22.96C15.4067 22.3333 14.8 21.636 14.2 20.872C14.7867 20.8987 15.3867 20.9187 15.9933 20.9187C16.6067 20.9187 17.2133 20.9053 17.8067 20.872C17.22 21.636 16.6133 22.3333 16.0133 22.96ZM11.16 19.1173C10.261 18.9871 9.36848 18.8153 8.48533 18.6027C8.72667 17.7613 9.02667 16.8933 9.36533 16.0267C9.63333 16.5467 9.91467 17.0693 10.2213 17.592C10.528 18.1133 10.84 18.6227 11.16 19.1173ZM15.98 5.544C16.5867 6.17067 17.1933 6.868 17.7933 7.632C17.2067 7.60533 16.6067 7.58533 16 7.58533C15.3867 7.58533 14.78 7.59867 14.1867 7.632C14.7733 6.868 15.38 6.17067 15.98 5.544ZM11.1533 9.38667C10.5065 10.3932 9.9102 11.4314 9.36667 12.4973C9.02429 11.6473 8.72392 10.7809 8.46667 9.90133C9.32 9.69867 10.2213 9.52267 11.1533 9.38667ZM5.25067 17.552C2.94133 16.568 1.448 15.276 1.448 14.252C1.448 13.228 2.94133 11.9293 5.25067 10.952C5.81067 10.7107 6.424 10.4947 7.05733 10.2933C7.42933 11.5707 7.91867 12.9013 8.524 14.2653C7.95249 15.5482 7.46914 16.8686 7.07733 18.2173C6.45793 18.0255 5.84831 17.8035 5.25067 17.552ZM8.76 26.872C7.87333 26.3653 7.488 24.4267 7.788 21.936C7.86 21.3227 7.97733 20.676 8.12133 20.0173C9.39867 20.3307 10.7947 20.572 12.2627 20.7293C13.0936 21.8756 14 22.9651 14.976 23.9907C12.8493 25.9667 10.8533 27.0493 9.496 27.0493C9.23992 27.0521 8.98711 26.9917 8.76 26.8733V26.872ZM24.232 21.9027C24.5387 24.3947 24.16 26.332 23.2787 26.8467C23.084 26.964 22.8293 27.016 22.5293 27.016C21.1787 27.016 19.176 25.94 17.0493 23.976C18.0212 22.9548 18.9216 21.8677 19.744 20.7227C21.1416 20.5795 22.5275 20.3398 23.892 20.0053C24.0427 20.664 24.1587 21.296 24.232 21.9027ZM26.7427 17.552C26.1827 17.7933 25.5693 18.0093 24.936 18.2107C24.5373 16.8551 24.0473 15.5281 23.4693 14.2387C24.0693 12.8827 24.5507 11.5587 24.916 10.2867C25.5374 10.4791 26.1492 10.7011 26.7493 10.952C29.0587 11.936 30.552 13.228 30.552 14.252C30.5453 15.276 29.052 16.5747 26.7427 17.552Z" fill="#DADADA"/>
<path d="M15.9934 17.2334C16.7841 17.2334 17.5424 16.9193 18.1015 16.3601C18.6606 15.801 18.9747 15.0427 18.9747 14.252C18.9747 13.4613 18.6606 12.703 18.1015 12.1439C17.5424 11.5848 16.7841 11.2707 15.9934 11.2707C15.2027 11.2707 14.4443 11.5848 13.8852 12.1439C13.3261 12.703 13.012 13.4613 13.012 14.252C13.012 15.0427 13.3261 15.801 13.8852 16.3601C14.4443 16.9193 15.2027 17.2334 15.9934 17.2334Z" fill="#DADADA"/>
</svg>
