<svg width="32" height="32" viewBox="0 0 32 32" fill="none" xmlns="http://www.w3.org/2000/svg">
<path d="M26.4 12.1343C25.2001 11.7333 24.1409 11.0123 23.344 10.0539C22.4657 8.98616 21.3473 8.12747 20.0744 7.54356C18.8015 6.95964 17.4078 6.66596 16 6.68499C14.1062 6.55485 12.2313 7.12162 10.7488 8.27243C9.26629 9.42324 8.28487 11.0737 8 12.895C8.56108 11.9841 9.40553 11.2693 10.4118 10.8536C11.4181 10.438 12.5344 10.3428 13.6 10.5818C14.7979 10.9944 15.8553 11.7196 16.656 12.6776C17.5391 13.7369 18.6597 14.5867 19.9323 15.1624C21.2049 15.7381 22.5961 16.0246 24 16C25.8938 16.1301 27.7687 15.5634 29.2512 14.4126C30.7337 13.2617 31.7151 11.6113 32 9.78999C31.4491 10.7118 30.6073 11.4374 29.599 11.8595C28.5906 12.2816 27.4691 12.3779 26.4 12.1343ZM5.6 19.8657C6.79991 20.2667 7.85907 20.9877 8.656 21.9461C9.53432 23.0138 10.6527 23.8725 11.9256 24.4564C13.1985 25.0404 14.5922 25.334 16 25.315C17.8938 25.4452 19.7687 24.8784 21.2512 23.7276C22.7337 22.5768 23.7151 20.9263 24 19.105C23.4389 20.0159 22.5945 20.7307 21.5882 21.1464C20.5819 21.562 19.4656 21.6572 18.4 21.4182C17.2021 21.0056 16.1447 20.2804 15.344 19.3224C14.4585 18.2658 13.3375 17.4178 12.0655 16.8423C10.7934 16.2669 9.40336 15.9789 8 16C6.10619 15.8699 4.23133 16.4366 2.74881 17.5874C1.26628 18.7383 0.284867 20.3887 0 22.21C0.550891 21.2882 1.39265 20.5626 2.40101 20.1405C3.40938 19.7184 4.53089 19.6221 5.6 19.8657Z" fill="#DADADA"/>
</svg>
